# xmcd
#
# Track frame offsets: 
#        150
#        16142
#        35690
#        61927
#        81692
#        96365
#        110293
#        123437
#        149320
#        168770
#        185335
#        199174
#        219519
#        236519
#        253531
#        267126
#        285223
#        307134
#        324122
#        338868
#
# Disc length: 4692 seconds
#
# Revision: 15
# Processed by: cddbd v1.5.2PL0 Copyright (c) Steve Scherf et al.
# Submitted via: ExactAudioCopyFreeDBPlugin 1.0
#
DISCID=1a125214
DTITLE=ABBA - 2014 - More Gold [CD 2]
DYEAR=2014
DGENRE=Pop
TTITLE0=Summer Night City
TTITLE1=Angeleyes
TTITLE2=The Day Before You Came
TTITLE3=Eagle
TTITLE4=I Do, I Do, I Do, I Do, I Do
TTITLE5=So Long
TTITLE6=Honey Honey
TTITLE7=The Visitors
TTITLE8=Our Last Summer
TTITLE9=On And On And On
TTITLE10=Ring Ring
TTITLE11=I Wonder (Departure)
TTITLE12=Lovelight
TTITLE13=Head Over Heels
TTITLE14=When I Kissed The Teacher
TTITLE15=I Am The City
TTITLE16=Cassandra
TTITLE17=Under Attack
TTITLE18=When All Is Said And Done
TTITLE19=The Way Old Friends Do
EXTD=YEAR: 2003
EXTT0=
EXTT1=
EXTT2=
EXTT3=
EXTT4=
EXTT5=
EXTT6=
EXTT7=
EXTT8=
EXTT9=
EXTT10=
EXTT11=
EXTT12=
EXTT13=
EXTT14=
EXTT15=
EXTT16=
EXTT17=
EXTT18=
EXTT19=
PLAYORDER=
